<svg id="3e784e4a-9689-4160-a930-5020215500f1" data-name="图层 1" xmlns="http://www.w3.org/2000/svg" viewBox="0 0 64 64"><title>data-developed的副本</title><path d="M32.07,0a32,32,0,1,0,32,32A32,32,0,0,0,32.07,0Zm-10,39.17A2.28,2.28,0,0,1,22,42.41a2.25,2.25,0,0,1-1.71.71,2.35,2.35,0,0,1-1.71-.71s-9.81-9.52-9.66-9.52A2.35,2.35,0,0,1,8.18,31,2.48,2.48,0,0,1,9,29.33l9.81-8.1A2.42,2.42,0,1,1,22,24.93l-7.67,6.54ZM39.16,24.36,29.21,42a2.64,2.64,0,0,1-2.13,1.28A2.68,2.68,0,0,1,25.95,43a2.36,2.36,0,0,1-.85-3.27L35,22.09a2.36,2.36,0,0,1,3.27-.85A2.14,2.14,0,0,1,39.16,24.36Zm6.25,18.19a3,3,0,0,1-1.71.71A2.35,2.35,0,0,1,42,42.55a2.59,2.59,0,0,1,0-3.41l7.82-7.67-7.67-6.54a2.42,2.42,0,0,1,3.13-3.7l9.81,8.1A2,2,0,0,1,55.93,31a2,2,0,0,1-.71,2Z"/></svg>