<svg id="8087231c-66b9-4e13-b947-1c26c6192f22" data-name="图层 1" xmlns="http://www.w3.org/2000/svg" viewBox="0 0 64 64"><title>data-developed的副本</title><path d="M26.49,15.76l.1,0-16.13-5a2.77,2.77,0,0,0-.56-.05,2.7,2.7,0,0,0-2.7,2.7V52a2.7,2.7,0,0,0,2.7,2.71,3.36,3.36,0,0,0,.56-.05L27,49.5a3.37,3.37,0,0,0,1.83-3V19A3.39,3.39,0,0,0,26.49,15.76ZM24.77,45.32l-13.51,3.6V16.49l13.51,3.6ZM53.14,10.69a3.36,3.36,0,0,0-.56.05l-15.94,5h.05A3.38,3.38,0,0,0,34.21,19V46.49a3.38,3.38,0,0,0,1.83,3l16.52,5.16a2.83,2.83,0,0,0,.57.05A2.7,2.7,0,0,0,55.83,52V13.4a2.69,2.69,0,0,0-2.69-2.7Z"/></svg>