<?xml version="1.0" standalone="no"?><!DOCTYPE svg PUBLIC "-//W3C//DTD SVG 1.1//EN" "http://www.w3.org/Graphics/SVG/1.1/DTD/svg11.dtd"><svg t="1530085889010" class="icon" style="" viewBox="0 0 1024 1024" version="1.1" xmlns="http://www.w3.org/2000/svg" p-id="10853" xmlns:xlink="http://www.w3.org/1999/xlink" width="200" height="200"><defs><style type="text/css"></style></defs><path d="M856.8 155.2h41.4c16.3 0 29.7-13.4 29.7-29.7 0-16.3-13.4-29.7-29.7-29.7H125.7c-16.3 0-29.7 13.4-29.7 29.7 0 16.3 13.4 29.7 29.7 29.7h41.4c25.2 167.4 115 302.9 232.5 356.6-117.6 53.7-207.4 189.4-232.5 357h-41.4c-16.3 0-29.7 13.4-29.7 29.7 0 16.3 13.4 29.7 29.7 29.7h772.6c16.3 0 29.7-13.4 29.7-29.7 0-16.3-13.4-29.7-29.7-29.7h-41.4C831.8 701.2 742 565.5 624.4 511.7c117.5-53.6 207.2-189.1 232.4-356.5zM233.1 861.8c0.9 0.6 1.8 1.3 2.7 1.9h-3c0-0.6 0.2-1.2 0.3-1.9z m438-459.1c-22.8 21.9-47.4 39-73.3 50.8-22.8 10.4-37.4 33.2-37.4 58.2 0 25.1 14.6 47.8 37.4 58.2 25.8 11.8 50.5 28.9 73.3 50.8 23.4 22.5 44.3 49.6 62.3 80.7 3.1 5.4 6.2 10.9 9.1 16.5-57.8-22-137.5-35.7-225.5-35.7-94.6 0-179.6 15.8-238.1 41 3.7-7.4 7.6-14.6 11.7-21.7 18-31 39-58.2 62.3-80.7 22.8-21.9 47.4-39 73.3-50.8 22.8-10.4 37.4-33.2 37.4-58.2 0-25.1-14.6-47.8-37.4-58.2-25.8-11.8-50.5-28.9-73.3-50.8-23.4-22.5-44.3-49.6-62.3-80.7-27.8-48-47.4-103.2-57.9-162.3h558.6c-10.4 59.1-30 114.3-57.9 162.3-18 31-39 58.1-62.3 80.6z" fill="#444444" p-id="10854"></path></svg>