<svg id="cf43d456-a030-46c2-b305-7afb00e979ad" data-name="图层 1" xmlns="http://www.w3.org/2000/svg" viewBox="0 0 64 64"><title>data-developed的副本</title><path d="M32,0A32,32,0,1,0,64,32,32,32,0,0,0,32,0ZM18.37,12.42a30.16,30.16,0,0,1,8.9-2.14,41.46,41.46,0,0,1,15,1c2.56.65,6.2,1.82,7.48,4.28s-1.28,4.54-3.37,5.58C41.42,23.52,35.49,24,30.1,23.78A35.85,35.85,0,0,1,21,22.42c-2.49-.71-5.59-1.88-6.81-4.22C12.77,15.54,16.35,13.33,18.37,12.42Zm-4.58,9.07c.13,0,.81,1.17,1,1.3a10.77,10.77,0,0,0,2.83,1.56,32.92,32.92,0,0,0,4.92,1.49,46.08,46.08,0,0,0,9.44,1,42.77,42.77,0,0,0,9.57-1,30.19,30.19,0,0,0,5.19-1.69,12.12,12.12,0,0,0,2-1.1A3.39,3.39,0,0,0,50,21.49a13.82,13.82,0,0,1,.07,2.6c.07,1.95,0,3.9,0,5.84,0,1.75.13,3.18-1.21,4.48a12.71,12.71,0,0,1-4,2.34,9.22,9.22,0,0,1-1.21.45,19.06,19.06,0,0,1-2.29.65,43.64,43.64,0,0,1-16.92.39c-1.15-.26-2.36-.45-3.44-.78l-1.21-.39c-2.22-.91-5.8-2.21-6-4.93C13.72,27.85,13.79,27.4,13.79,21.49ZM48.91,49.6a12.71,12.71,0,0,1-4,2.34,9.22,9.22,0,0,1-1.21.45,19.06,19.06,0,0,1-2.29.65,43.64,43.64,0,0,1-16.92.39c-1.15-.26-2.36-.45-3.44-.78l-1.21-.39c-2.22-.91-5.8-2.21-6-4.93-.07-4.28,0-4.74,0-10.65.13,0,.81,1.17,1,1.3a10.77,10.77,0,0,0,2.83,1.56A32.93,32.93,0,0,0,22.63,41a46.08,46.08,0,0,0,9.44,1,42.77,42.77,0,0,0,9.57-1,30.18,30.18,0,0,0,5.19-1.69,12.12,12.12,0,0,0,2-1.1,3.39,3.39,0,0,0,1.21-1.49,13.82,13.82,0,0,1,.07,2.6c.07,1.95,0,3.9,0,5.84C50.13,46.87,50.26,48.3,48.91,49.6Z"/></svg>