<svg id="f8710305-f842-4f0f-9d89-e13b54d28096" data-name="图层 1" xmlns="http://www.w3.org/2000/svg" viewBox="0 0 64 64"><title>data-developed的副本</title><path d="M31.93,0a32,32,0,1,0,32,32A32,32,0,0,0,31.93,0ZM30.19,43.61a2.81,2.81,0,0,1-1.53,2.5l-13.78,4.3a2.79,2.79,0,0,1-.47,0,2.25,2.25,0,0,1-2.25-2.26V16a2.25,2.25,0,0,1,2.25-2.25,2.31,2.31,0,0,1,.47,0L28.25,18h0l.08,0-.08,0a2.83,2.83,0,0,1,1.94,2.68Zm22,4.51a2.25,2.25,0,0,1-2.25,2.26,2.36,2.36,0,0,1-.47,0L35.71,46a2.82,2.82,0,0,1-1.53-2.5V20.59a2.82,2.82,0,0,1,2.07-2.71h0l13.28-4.16a2.8,2.8,0,0,1,.47,0,2.24,2.24,0,0,1,2.25,2.25Z"/><polygon points="15.43 45.91 26.93 42.85 26.93 21.38 15.43 18.32 15.43 45.91"/></svg>